<svg version="1.1" id="Layer_1" xmlns="http://www.w3.org/2000/svg" xmlns:xlink="http://www.w3.org/1999/xlink" x="0px" y="0px"
	 width="100%" viewBox="0 0 200 200" enable-background="new 0 0 200 200" xml:space="preserve">
<path fill="#000000" opacity="1.000000" stroke="none" 
	d="
M201.000000,79.000000 
	C201.000000,119.974678 201.000000,160.449356 201.000000,200.962006 
	C134.400360,200.962006 67.800690,200.962006 1.100509,200.962006 
	C1.100509,134.442154 1.100509,67.884117 1.100509,1.163035 
	C67.666344,1.163035 134.333145,1.163035 201.000000,1.163035 
	C201.000000,26.865711 201.000000,52.682858 201.000000,79.000000 
M104.500000,10.999483 
	C73.405495,10.999483 42.310993,10.999483 11.286099,10.999483 
	C11.286099,71.309113 11.286099,131.045151 11.286099,190.713852 
	C71.309189,190.713852 131.045227,190.713852 190.713806,190.713852 
	C190.713806,130.690750 190.713806,70.954720 190.713806,10.999483 
	C162.118469,10.999483 133.809235,10.999483 104.500000,10.999483 
z"/>
<path fill="#FFFFFF" opacity="1.000000" stroke="none" 
	d="
M105.000000,10.999483 
	C133.809235,10.999483 162.118469,10.999483 190.713806,10.999483 
	C190.713806,70.954720 190.713806,130.690750 190.713806,190.713852 
	C131.045227,190.713852 71.309189,190.713852 11.286099,190.713852 
	C11.286099,131.045151 11.286099,71.309113 11.286099,10.999483 
	C42.310993,10.999483 73.405495,10.999483 105.000000,10.999483 
M62.484486,56.001137 
	C68.123734,50.118301 75.058334,46.252289 83.019440,45.320484 
	C93.772339,44.061920 103.632912,46.260639 111.522232,54.791523 
	C118.502625,62.339554 122.752472,71.215530 126.108757,80.700470 
	C126.870499,82.853172 127.523750,85.348289 129.958130,83.859726 
	C129.958130,72.869598 129.973953,62.420670 129.944244,51.971867 
	C129.938568,49.978828 129.969635,47.944786 129.597473,46.003727 
	C129.099045,43.404282 127.073494,43.120041 125.929337,45.093307 
	C123.403465,49.449505 120.312096,48.898872 116.395111,47.457596 
	C103.842766,42.838902 91.192612,39.264488 77.469574,41.923859 
	C55.352444,46.209911 37.124222,55.235535 28.537169,77.971146 
	C21.661264,96.176224 20.794508,114.255936 27.010063,132.819061 
	C32.355301,148.782913 43.363800,159.130310 58.358242,165.467941 
	C67.690964,169.412506 77.671997,170.270508 87.858635,170.107788 
	C104.215187,169.846527 117.300415,163.491608 126.431679,150.058517 
	C130.298096,144.370605 132.354355,137.610107 129.973419,130.418396 
	C129.019302,131.978439 128.703003,133.732590 127.975204,135.295059 
	C125.471970,140.669128 123.658882,146.639618 120.056252,151.168503 
	C112.889610,160.177719 102.807304,163.354080 91.306648,163.302231 
	C73.104523,163.220123 59.711399,155.258194 51.801712,139.175598 
	C47.097866,129.611343 45.189606,118.879158 45.126186,108.212883 
	C45.013298,89.227844 48.843956,71.289932 62.484486,56.001137 
M161.033875,43.413857 
	C158.158813,45.871384 155.022934,48.088757 152.479202,50.851368 
	C149.723083,53.844643 145.066116,56.258999 147.489929,61.745552 
	C155.640656,61.745552 163.719345,61.745552 171.759491,61.745552 
	C171.759491,60.081867 171.759491,58.679192 171.759491,56.910835 
	C165.804428,56.910835 160.085464,56.910835 153.386078,56.910835 
	C156.004501,54.521961 157.924820,52.807995 159.802460,51.048492 
	C163.021423,48.032040 167.046951,45.488163 169.237183,41.845890 
	C173.318069,35.059528 171.943634,25.458059 162.792068,24.074242 
	C159.865692,23.631741 156.796310,23.794821 153.825958,24.058903 
	C148.707794,24.513941 147.553177,26.304461 148.741821,31.630831 
	C149.653458,31.213623 150.479767,30.709446 151.376770,30.446262 
	C155.794403,29.150135 160.904114,26.960627 164.233231,31.270407 
	C167.336823,35.288242 164.113617,39.348759 161.033875,43.413857 
M138.028168,74.367981 
	C138.685593,75.238419 139.335297,76.861641 140.001587,76.868477 
	C154.237137,77.014526 168.474564,76.979294 182.729523,76.979294 
	C182.729523,73.731010 182.729523,71.003990 182.729523,68.272064 
	C167.750931,68.272064 153.044388,68.272064 138.027618,68.272064 
	C138.027618,70.167648 138.027618,71.798119 138.028168,74.367981 
z"/>
<path fill="#030303" opacity="1.000000" stroke="none" 
	d="
M62.238014,56.259315 
	C48.843956,71.289932 45.013298,89.227844 45.126186,108.212883 
	C45.189606,118.879158 47.097866,129.611343 51.801712,139.175598 
	C59.711399,155.258194 73.104523,163.220123 91.306648,163.302231 
	C102.807304,163.354080 112.889610,160.177719 120.056252,151.168503 
	C123.658882,146.639618 125.471970,140.669128 127.975204,135.295059 
	C128.703003,133.732590 129.019302,131.978439 129.973419,130.418396 
	C132.354355,137.610107 130.298096,144.370605 126.431679,150.058517 
	C117.300415,163.491608 104.215187,169.846527 87.858635,170.107788 
	C77.671997,170.270508 67.690964,169.412506 58.358242,165.467941 
	C43.363800,159.130310 32.355301,148.782913 27.010063,132.819061 
	C20.794508,114.255936 21.661264,96.176224 28.537169,77.971146 
	C37.124222,55.235535 55.352444,46.209911 77.469574,41.923859 
	C91.192612,39.264488 103.842766,42.838902 116.395111,47.457596 
	C120.312096,48.898872 123.403465,49.449505 125.929337,45.093307 
	C127.073494,43.120041 129.099045,43.404282 129.597473,46.003727 
	C129.969635,47.944786 129.938568,49.978828 129.944244,51.971867 
	C129.973953,62.420670 129.958130,72.869598 129.958130,83.859726 
	C127.523750,85.348289 126.870499,82.853172 126.108757,80.700470 
	C122.752472,71.215530 118.502625,62.339554 111.522232,54.791523 
	C103.632912,46.260639 93.772339,44.061920 83.019440,45.320484 
	C75.058334,46.252289 68.123734,50.118301 62.238014,56.259315 
z"/>
<path fill="#050505" opacity="1.000000" stroke="none" 
	d="
M161.271393,43.133064 
	C164.113617,39.348759 167.336823,35.288242 164.233231,31.270407 
	C160.904114,26.960627 155.794403,29.150135 151.376770,30.446262 
	C150.479767,30.709446 149.653458,31.213623 148.741821,31.630831 
	C147.553177,26.304461 148.707794,24.513941 153.825958,24.058903 
	C156.796310,23.794821 159.865692,23.631741 162.792068,24.074242 
	C171.943634,25.458059 173.318069,35.059528 169.237183,41.845890 
	C167.046951,45.488163 163.021423,48.032040 159.802460,51.048492 
	C157.924820,52.807995 156.004501,54.521961 153.386078,56.910835 
	C160.085464,56.910835 165.804428,56.910835 171.759491,56.910835 
	C171.759491,58.679192 171.759491,60.081867 171.759491,61.745552 
	C163.719345,61.745552 155.640656,61.745552 147.489929,61.745552 
	C145.066116,56.258999 149.723083,53.844643 152.479202,50.851368 
	C155.022934,48.088757 158.158813,45.871384 161.271393,43.133064 
z"/>
<path fill="#020202" opacity="1.000000" stroke="none" 
	d="
M138.027893,73.898285 
	C138.027618,71.798119 138.027618,70.167648 138.027618,68.272064 
	C153.044388,68.272064 167.750931,68.272064 182.729523,68.272064 
	C182.729523,71.003990 182.729523,73.731010 182.729523,76.979294 
	C168.474564,76.979294 154.237137,77.014526 140.001587,76.868477 
	C139.335297,76.861641 138.685593,75.238419 138.027893,73.898285 
z"/>
</svg>