<svg xmlns="http://www.w3.org/2000/svg" version="1.1" xmlns:xlink="http://www.w3.org/1999/xlink" xmlns:svgjs="http://svgjs.dev/svgjs" width="2000" height="272" viewBox="0 0 2000 272"><g transform="matrix(1,0,0,1,-1.2121212121212466,-0.48564448489062784)"><svg viewBox="0 0 396 54" data-background-color="#ffffff" preserveAspectRatio="xMidYMid meet" height="272" width="2000" xmlns="http://www.w3.org/2000/svg" xmlns:xlink="http://www.w3.org/1999/xlink"><g id="tight-bounds" transform="matrix(1,0,0,1,0.2400000000000091,0.09641471391211098)"><svg viewBox="0 0 395.52 53.80717057217577" height="53.80717057217577" width="395.52"><g><svg viewBox="0 0 470.45417015358794 64.00133439483594" height="53.80717057217577" width="395.52"><g transform="matrix(1,0,0,1,74.93417015358796,8.845336374394837)"><svg viewBox="0 0 395.52 46.31066164604626" height="46.31066164604626" width="395.52"><g id="textblocktransform"><svg viewBox="0 0 395.52 46.31066164604626" height="46.31066164604626" width="395.52" id="textblock"><g><svg viewBox="0 0 395.52 46.31066164604626" height="46.31066164604626" width="395.52"><g transform="matrix(1,0,0,1,0,0)"><svg width="395.52" viewBox="0.7 -32.3 278.82 32.65" height="46.31066164604626" data-palette-color="#0369a1"><path d="M17.1-32.05L27.8 0 23.7 0 22.95-3.2 21.15-8.7 13.95-8.85 7.45-8.7 5.5-3.4 4.7 0 0.7 0 12.45-32.05 17.1-32.05ZM14.3-12L20.05-12.1 14.85-27.9 14.5-27.9 8.7-12.1 14.3-12ZM42.4-25.15Q46.55-25.15 49.6-23.4L49.6-23.4 48.9-19.95 48.45-19.8Q47.2-20.85 45.55-21.45 43.9-22.05 42-22.05L42-22.05Q38.3-22.05 36.35-19.68 34.4-17.3 34.4-12.6L34.4-12.6Q34.4-7.85 36.35-5.35 38.3-2.85 42-2.85L42-2.85Q43.8-2.85 45.62-3.48 47.45-4.1 48.9-5.15L48.9-5.15 49.35-5 49-1.55Q45.6 0.3 41.85 0.3L41.85 0.3Q36.35 0.3 33.4-2.98 30.45-6.25 30.45-12.3L30.45-12.3Q30.45-18.45 33.57-21.8 36.7-25.15 42.4-25.15L42.4-25.15ZM79.7-24.9L82.25 0 78.9 0 78.34-7.6 77-19.1 76.7-19.1 69.55-2.8 66.59-2.8 59.85-19.1 59.55-19.1 58.25-7.9 57.55 0 54.35 0 57.1-24.9 61.45-24.9 62.7-21.15 68.15-7.75 68.45-7.75 74.15-21.35 75.45-24.9 79.7-24.9ZM98.44-3L105.09-3.2 105.39-2.9 105.04 0 89.89 0 90.04-7.5 89.89-24.9 105.14-24.9 105.39-24.6 105.09-21.7 98.79-21.9 93.59-21.85 93.54-14.3 98.49-14.25 102.84-14.4 103.09-14.05 102.79-11.1 98.19-11.25 93.54-11.2 93.49-7.8 93.54-3.05 98.44-3ZM128.74-32.3Q132.19-32.3 135.89-30.8L135.89-30.8 135.24-26.95 134.54-26.75Q133.09-27.85 131.46-28.45 129.84-29.05 128.24-29.05L128.24-29.05Q126.39-29.05 125.01-28.3 123.64-27.55 122.91-26.35 122.19-25.15 122.19-23.85L122.19-23.85Q122.19-22.5 123.01-21.48 123.84-20.45 125.09-19.7 126.34-18.95 128.49-17.9L128.49-17.9Q131.19-16.65 132.84-15.58 134.49-14.5 135.66-12.85 136.84-11.2 136.84-8.85L136.84-8.85Q136.84-6.35 135.49-4.25 134.14-2.15 131.69-0.9 129.24 0.35 126.09 0.35L126.09 0.35Q123.99 0.35 121.71-0.23 119.44-0.8 117.49-1.9L117.49-1.9 117.99-6 118.54-6.25Q120.29-4.55 122.41-3.73 124.54-2.9 126.49-2.9L126.49-2.9Q128.39-2.9 129.86-3.65 131.34-4.4 132.11-5.65 132.89-6.9 132.89-8.3L132.89-8.3Q132.89-10.4 131.29-11.68 129.69-12.95 126.44-14.45L126.44-14.45Q123.79-15.75 122.19-16.78 120.59-17.8 119.44-19.43 118.29-21.05 118.29-23.4L118.29-23.4Q118.29-25.85 119.61-27.9 120.94-29.95 123.31-31.13 125.69-32.3 128.74-32.3L128.74-32.3ZM152.19-8.7L152.14-7.15 152.29 0 148.54 0 148.74-7.15 148.69-8.7 140.24-24.9 144.34-24.9 144.84-23.45 150.44-12.75 150.69-12.75 156.79-23.3 157.44-24.9 161.44-24.9 152.19-8.7ZM174.53-25.15Q177.58-25.15 180.63-23.95L180.63-23.95 179.98-20.25 179.38-20.1Q177.98-21.2 176.73-21.73 175.48-22.25 174.13-22.25L174.13-22.25Q171.98-22.25 170.73-21.13 169.48-20 169.48-18.55L169.48-18.55Q169.48-17.1 170.71-16.2 171.93-15.3 174.48-14.2L174.48-14.2Q176.73-13.2 178.06-12.4 179.38-11.6 180.36-10.28 181.33-8.95 181.33-7.05L181.33-7.05Q181.33-5.1 180.28-3.43 179.23-1.75 177.21-0.73 175.18 0.3 172.38 0.3L172.38 0.3Q170.63 0.3 168.71-0.13 166.78-0.55 165.13-1.4L165.13-1.4 165.58-5.35 166.08-5.55Q167.48-4.15 169.36-3.38 171.23-2.6 172.83-2.6L172.83-2.6Q174.93-2.6 176.28-3.73 177.63-4.85 177.63-6.45L177.63-6.45Q177.63-7.95 176.41-8.85 175.18-9.75 172.58-10.95L172.58-10.95Q170.43-11.9 169.06-12.7 167.68-13.5 166.73-14.83 165.78-16.15 165.78-18.05L165.78-18.05Q165.78-20.05 166.86-21.65 167.93-23.25 169.91-24.2 171.88-25.15 174.53-25.15L174.53-25.15ZM203.18-24.9L203.38-24.6 203.13-21.45 198.48-21.8 195.98-21.8 195.83-7.8 195.98 0 192.23 0 192.38-7.5 192.28-21.8 189.78-21.8 185.03-21.45 184.73-21.8 185.03-24.9 203.18-24.9ZM218.03-3L224.68-3.2 224.98-2.9 224.63 0 209.48 0 209.63-7.5 209.48-24.9 224.73-24.9 224.98-24.6 224.68-21.7 218.38-21.9 213.18-21.85 213.13-14.3 218.08-14.25 222.43-14.4 222.68-14.05 222.38-11.1 217.78-11.25 213.13-11.2 213.08-7.8 213.13-3.05 218.03-3ZM255.18-24.9L257.73 0 254.38 0 253.83-7.6 252.48-19.1 252.18-19.1 245.03-2.8 242.08-2.8 235.33-19.1 235.03-19.1 233.73-7.9 233.03 0 229.83 0 232.58-24.9 236.93-24.9 238.18-21.15 243.63-7.75 243.93-7.75 249.63-21.35 250.93-24.9 255.18-24.9ZM272.72-25.15Q275.77-25.15 278.82-23.95L278.82-23.95 278.17-20.25 277.57-20.1Q276.17-21.2 274.92-21.73 273.67-22.25 272.32-22.25L272.32-22.25Q270.17-22.25 268.92-21.13 267.67-20 267.67-18.55L267.67-18.55Q267.67-17.1 268.9-16.2 270.12-15.3 272.67-14.2L272.67-14.2Q274.92-13.2 276.25-12.4 277.57-11.6 278.55-10.28 279.52-8.95 279.52-7.05L279.52-7.05Q279.52-5.1 278.47-3.43 277.42-1.75 275.4-0.73 273.37 0.3 270.57 0.3L270.57 0.3Q268.82 0.3 266.9-0.13 264.97-0.55 263.32-1.4L263.32-1.4 263.77-5.35 264.27-5.55Q265.67-4.15 267.55-3.38 269.42-2.6 271.02-2.6L271.02-2.6Q273.12-2.6 274.47-3.73 275.82-4.85 275.82-6.45L275.82-6.45Q275.82-7.95 274.6-8.85 273.37-9.75 270.77-10.95L270.77-10.95Q268.62-11.9 267.25-12.7 265.87-13.5 264.92-14.83 263.97-16.15 263.97-18.05L263.97-18.05Q263.97-20.05 265.05-21.65 266.12-23.25 268.1-24.2 270.07-25.15 272.72-25.15L272.72-25.15Z" opacity="1" transform="matrix(1,0,0,1,0,0)" fill="#0369a1" class="wordmark-text-0" data-fill-palette-color="primary" id="text-0"></path></svg></g></svg></g></svg></g></svg></g><g><svg viewBox="0 0 64.00133439483594 64.00133439483594" height="64.00133439483594" width="64.00133439483594"><g data-palette-color="#0369a1"><rect width="17.493698067921823" height="64.00133439483594" fill="#0369a1" stroke="transparent" data-fill-palette-color="accent" x="0" fill-opacity="0.5"></rect><rect width="17.493698067921823" height="64.00133439483594" fill="#0369a1" stroke="transparent" data-fill-palette-color="accent" x="21.33377813161198" fill-opacity="0.75"></rect><rect width="17.493698067921823" height="64.00133439483594" fill="#0369a1" stroke="transparent" data-fill-palette-color="accent" x="42.66755626322396" fill-opacity="1"></rect></g></svg></g></svg></g><defs></defs></svg><rect width="395.52" height="53.80717057217577" fill="none" stroke="none" visibility="hidden"></rect></g></svg></g></svg>