<svg width="139" height="51" viewBox="0 0 139 51" fill="none" xmlns="http://www.w3.org/2000/svg">
<g clip-path="url(#clip0_5895_27551)">
<path d="M76.28 50.9991C71.8269 51.0605 67.5203 49.4077 64.2502 46.3824C62.6707 44.8807 61.4171 43.0697 60.5677 41.0621C59.7182 39.0545 59.291 36.8933 59.3127 34.7133C59.2981 32.5108 59.7346 30.3288 60.5953 28.3017C61.456 26.2746 62.7225 24.4454 64.3168 22.927C67.6022 19.8393 71.9533 18.1422 76.4603 18.1906C78.9586 18.1628 81.4351 18.6587 83.7303 19.6466V28.1105C81.1902 26.5588 79.3268 25.7167 76.7525 25.7167C75.6175 25.697 74.49 25.9037 73.4358 26.3247C72.3815 26.7457 71.4215 27.3726 70.612 28.1688C69.8024 28.965 69.1594 29.9146 68.7204 30.9621C68.2815 32.0096 68.0554 33.1341 68.0554 34.27C68.0554 35.4058 68.2815 36.5303 68.7204 37.5778C69.1594 38.6254 69.8024 39.5749 70.612 40.3711C71.4215 41.1673 72.3815 41.7942 73.4358 42.2152C74.49 42.6362 75.6175 42.8429 76.7525 42.8233C79.097 42.8233 80.9228 42.212 83.7303 40.4884V48.9524C81.8865 50.3502 79.5199 50.9991 76.28 50.9991ZM57.8141 50.5092H48.843V18.6771H57.8141V50.5092ZM29.3859 50.5092H19.9355V18.6771H31.4066C36.4782 18.6771 40.7485 20.1681 43.7534 22.9894C46.7583 25.8107 48.344 29.811 48.344 34.5645C48.344 39.7916 46.6241 43.827 43.233 46.5594C41.4627 47.9407 39.4316 48.9498 37.2617 49.526C34.6935 50.2117 32.0437 50.5425 29.3859 50.5092ZM31.0093 26.0227C30.8384 26.0227 30.6419 26.033 30.4189 26.0458C30.1267 26.0621 29.7952 26.08 29.4056 26.08V43.1635H29.4107C32.4395 43.1635 34.8224 42.5112 36.4945 41.2237C38.4049 39.7532 39.3729 37.4551 39.3729 34.3918C39.3923 33.1401 39.1784 31.8957 38.7424 30.7224C38.3646 29.7301 37.7672 28.8363 36.9951 28.108C35.3396 26.6728 33.1976 25.9266 31.0093 26.0227ZM8.98221 50.5092H0V18.6771H18.4403V26.0407H9.04202L9.10097 30.9695H17.7867V38.3331H9.04202L8.98221 50.5092ZM6.39341 14.2707H0V12.7318H0.00854391C1.08593 12.7318 1.57977 12.6369 1.83011 12.3821C2.08044 12.1273 2.08642 11.6819 2.08642 10.9595V3.69245C2.08642 2.97601 2.02662 2.54939 1.71305 2.34763C1.16515 2.14938 0.578326 2.0829 0 2.15355L0 0.557373H6.39341L9.38378 9.24617L12.6065 0.557373H18.9393V2.15355H18.9256C18.2847 2.06519 17.6327 2.19208 17.0716 2.51434C16.7828 2.76398 16.7298 3.16153 16.7298 3.80787V11.3733C16.7298 12.495 16.8042 12.7318 18.9401 12.7318V14.2707H11.5343V12.7318C13.8044 12.6138 13.8044 12.6138 13.8044 11.0219V3.45307L9.67854 14.269H8.0646L4.2412 3.45307V11.1972C4.2412 12.4454 4.5633 12.6754 6.39255 12.7361V14.275L6.39341 14.2707ZM42.5085 14.2707H37.1746V12.772H37.1831C38.6227 12.772 38.6732 12.5309 38.6732 11.3904V7.98941C38.6732 6.77025 38.1776 6.20257 37.1147 6.20257C36.0519 6.20257 34.8976 6.94381 34.8976 9.02389V10.6372C34.8976 12.5548 34.8976 12.7113 36.3355 12.7694V14.2664H30.4018V12.772H30.5197C31.4595 12.772 31.9158 12.7609 32.143 12.5052C32.3703 12.2496 32.3754 11.7495 32.3754 10.7569V7.58673C32.3754 6.19317 32.1798 6.14615 30.3975 6.14615V4.76285H34.8925V6.31884C35.2569 5.7588 35.7539 5.29751 36.3394 4.97595C36.9249 4.65438 37.5807 4.48251 38.2485 4.47558C38.8437 4.45465 39.4323 4.60627 39.9434 4.9122C40.4546 5.21813 40.8664 5.66534 41.1295 6.20001C42.3487 4.96632 43.2433 4.52859 44.5471 4.52859C44.978 4.47589 45.4153 4.53128 45.8195 4.68978C46.2236 4.84828 46.5821 5.1049 46.8625 5.43654C47.3104 6.20713 47.5069 7.09834 47.4247 7.98599V11.8461C47.4247 12.7164 47.5033 12.7685 48.8276 12.7685H49.3402V14.2656H43.4671V12.772H43.4825C44.166 12.772 44.5462 12.7438 44.7282 12.5873C44.9102 12.4308 44.9059 12.1658 44.9059 11.6776V8.21939C44.9059 6.47615 44.4001 6.14615 43.4671 6.14615C43.1238 6.13767 42.7838 6.21483 42.4778 6.37064C42.1717 6.52646 41.9092 6.75605 41.7139 7.03871C41.3096 7.66353 41.1057 8.39703 41.1295 9.14102V11.5007C41.1295 12.6497 41.2585 12.7677 42.5085 12.7677V14.2647V14.2707ZM80.1948 14.2707H73.7621V12.7634H73.7997C74.7686 12.7634 75.2411 12.7309 75.4812 12.5394C75.7213 12.3479 75.7272 11.9786 75.7272 11.3151V7.37299C75.7272 6.09827 75.3111 6.09827 73.7621 6.09827V4.70727H78.1699V6.04099C79.2114 4.89964 79.9701 4.47558 80.9689 4.47558C81.2647 4.46122 81.5602 4.50787 81.8371 4.61265C82.1141 4.71742 82.3666 4.87808 82.5788 5.08463C82.7911 5.29118 82.9586 5.53921 83.071 5.81331C83.1834 6.08741 83.2383 6.38171 83.2322 6.67792C83.2535 6.90051 83.2276 7.1251 83.1562 7.33698C83.0848 7.54886 82.9694 7.74325 82.8177 7.90742C82.666 8.07159 82.4813 8.20184 82.2758 8.28963C82.0703 8.37743 81.8485 8.42079 81.6251 8.41688C81.4504 8.42856 81.2752 8.4043 81.1102 8.34558C80.9452 8.28687 80.794 8.19496 80.6659 8.07551C80.5378 7.95607 80.4356 7.81163 80.3654 7.6511C80.2953 7.49057 80.2587 7.31736 80.2581 7.14216C80.273 6.84356 80.3777 6.55644 80.5585 6.31844C80.7394 6.08044 80.9878 5.90267 81.2714 5.80844C81.0809 5.73314 80.8781 5.694 80.6733 5.69302C80.2855 5.68132 79.9023 5.77943 79.5678 5.97606C79.2333 6.17269 78.9611 6.45983 78.7825 6.80445C78.3856 7.59125 78.1959 8.4664 78.2315 9.34706V11.434C78.2315 12.7241 78.3878 12.7668 79.8129 12.7668H80.1966V14.2724L80.1948 14.2707ZM67.8643 14.2707C66.5504 14.326 65.2623 13.895 64.2459 13.0601C63.7607 12.6044 63.3799 12.0489 63.1299 11.4318C62.8799 10.8147 62.7665 10.1507 62.7977 9.48556C62.766 8.16589 63.2408 6.88423 64.1246 5.9042C64.5764 5.43563 65.1209 5.06656 65.7234 4.82056C66.3258 4.57457 66.9729 4.45707 67.6233 4.47558C70.4428 4.47558 72.267 6.48641 72.267 9.59756H65.5728C65.5348 10.3956 65.7766 11.1818 66.2563 11.8204C66.4836 12.0876 66.7684 12.2998 67.0894 12.4412C67.4103 12.5826 67.759 12.6495 68.1095 12.6369C68.397 12.6588 68.686 12.6237 68.9599 12.5337C69.2338 12.4437 69.4873 12.3004 69.7058 12.1122C69.9243 11.924 70.1035 11.6945 70.2332 11.4368C70.3629 11.1791 70.4405 10.8984 70.4616 10.6107H72.2704C72.1725 11.6654 71.6666 12.6401 70.8606 13.3268C70.0003 13.9773 68.9418 14.3113 67.8643 14.2707ZM68.0591 5.4562C66.933 5.4562 66.2871 6.34877 66.2871 7.90477H69.7755C69.8219 7.26159 69.673 6.6194 69.3484 6.06236C69.2031 5.85923 69.0083 5.69675 68.7824 5.59048C68.5565 5.48421 68.308 5.43854 68.0591 5.4562ZM56.5248 14.2707C55.9585 14.2915 55.395 14.1829 54.8768 13.9533C54.3587 13.7237 53.8996 13.3791 53.5344 12.9455L52.7142 14.0398H51.4813V3.66937C51.4813 2.08687 51.3429 1.94153 49.8392 1.94153V0.557373H53.9403V5.45535C54.3198 5.05902 54.7748 4.74273 55.2784 4.52512C55.782 4.30752 56.324 4.193 56.8725 4.18832C59.1854 4.18832 60.8027 6.22565 60.8027 9.147C60.8655 10.4804 60.4672 11.7946 59.6749 12.8686C59.2909 13.3269 58.8073 13.6914 58.2611 13.9343C57.7149 14.1771 57.1204 14.2919 56.5231 14.2698L56.5248 14.2707ZM56.4026 5.94352C56.0797 5.92577 55.7584 6.00127 55.4771 6.16103C55.1958 6.32079 54.9664 6.55807 54.816 6.84463C54.4365 7.66163 54.2676 8.56077 54.3247 9.45991C54.3247 11.5203 55.0997 12.8002 56.3462 12.8002C56.6299 12.7958 56.9074 12.7162 57.1502 12.5695C57.3931 12.4227 57.5927 12.2141 57.7286 11.9649C58.164 11.1412 58.3655 10.214 58.3113 9.28379C58.3122 7.1926 57.5979 5.94352 56.4026 5.94352ZM25.0627 14.2698C23.7398 14.3232 22.4426 13.8929 21.4136 13.0592C20.9211 12.6078 20.5335 12.0537 20.2783 11.4361C20.023 10.8185 19.9063 10.1524 19.9364 9.4847C19.9075 8.16005 20.394 6.87597 21.2931 5.90334C21.7537 5.43839 22.3039 5.072 22.9104 4.82641C23.5168 4.58082 24.1668 4.46117 24.8209 4.47473C25.4482 4.45096 26.0731 4.56388 26.6524 4.80568C27.2318 5.04749 27.7516 5.41239 28.1761 5.87513C29.0287 6.92284 29.4663 8.24779 29.4056 9.59756H22.7106C22.6751 10.3868 22.9169 11.1636 23.3941 11.7931C23.6278 12.0687 23.9208 12.2879 24.2513 12.434C24.5817 12.5801 24.9409 12.6495 25.3019 12.6369C25.5895 12.659 25.8785 12.6241 26.1526 12.5342C26.4266 12.4442 26.6801 12.301 26.8987 12.1128C27.1172 11.9245 27.2965 11.6949 27.4261 11.4371C27.5557 11.1793 27.6332 10.8985 27.6541 10.6107H29.4039C29.1082 12.9361 27.5251 14.2698 25.0627 14.2698ZM24.7261 5.45535C23.582 5.45535 22.9259 6.34791 22.9259 7.90391H26.4144C26.4622 7.25971 26.3186 6.61574 26.0017 6.05296C25.8587 5.85168 25.666 5.69086 25.4425 5.58614C25.219 5.48142 24.9722 5.43636 24.7261 5.45535Z" fill="#818487"/>
<path d="M135.112 37.0063H93.5292V19.3474H89.7109V14.2117L114.634 0L139 14.3528V19.3474H135.112V37.0054V37.0063ZM114.632 5.35195L98.5966 14.7786V32.5076H130.321V14.7786L114.632 5.35195Z" fill="#818487"/>
<path d="M106.103 21.5283H122.694V17.1681H106.103V21.5283Z" fill="#818487"/>
<path d="M106.103 28.0243H122.694V23.6641H106.103V28.0243Z" fill="#818487"/>
<path d="M117.985 50.5478H115.138V44.9907H118.054C118.945 44.9263 119.836 45.1351 120.606 45.5891C120.95 45.8556 121.221 46.2051 121.394 46.6049C121.567 47.0047 121.635 47.4417 121.593 47.8752C121.593 50.1015 120.213 50.5478 117.985 50.5478ZM116.664 46.1876V49.3509H117.914C119.153 49.3509 119.927 49.1029 119.927 47.8727C119.927 47.6346 119.878 47.3991 119.781 47.1816C119.685 46.964 119.543 46.7693 119.366 46.6102C119.189 46.4511 118.981 46.3313 118.754 46.2584C118.528 46.1856 118.288 46.1614 118.052 46.1876H116.664Z" fill="#818487"/>
<path d="M131.881 50.5477H130.354V44.9906H134.38C134.96 44.9352 135.541 45.0777 136.029 45.395C136.213 45.5659 136.354 45.7774 136.441 46.0125C136.529 46.2476 136.56 46.4999 136.533 46.7492C136.533 47.64 136.076 48.0821 135.006 48.2265L136.601 50.5477H134.937L133.34 48.2265H131.881V50.5477ZM131.874 46.1875V47.0313H134.096C134.865 47.0313 135.068 47.0313 135.068 46.6098C135.068 46.2508 134.777 46.1875 134.165 46.1875H131.874Z" fill="#818487"/>
<path d="M111.419 48.4377L108.503 44.9906H106.768V50.5477H108.226V47.1716L111.142 50.5477H112.877V44.9906H111.419V48.4377Z" fill="#818487"/>
<path d="M93.9827 44.9906H92.4551V50.5477H97.9394V49.3508L93.9827 49.2824V44.9906Z" fill="#818487"/>
<path d="M99.5098 50.5477H104.855V49.3508H101.107V48.1539H104.23V47.0305H101.107V46.1875H104.855V44.9906H99.5098V50.5477Z" fill="#818487"/>
<path d="M123.303 50.5477L128.579 50.4776V49.3508H124.831V48.1539H128.024V47.0305H124.831V46.1875H128.579V44.9906H123.303V50.5477Z" fill="#818487"/>
<path d="M104.348 43.6235H103.336L104.724 38.6272H105.905L107.293 43.6218H106.212L105.905 42.4967H104.655L104.348 43.6226V43.6235ZM105.287 39.6967L104.872 41.6631H105.771L105.287 39.6967Z" fill="#818487"/>
<path d="M99.4135 43.5534C98.4145 43.6248 97.4105 43.5417 96.4368 43.3072C95.8387 43.0789 95.5952 42.6403 95.5952 41.7939V40.4542C95.5952 39.0769 96.0933 38.4879 97.2613 38.4879C97.517 38.459 97.7758 38.4964 98.0128 38.5966C98.2498 38.6968 98.4571 38.8563 98.6147 39.0598C98.8616 39.5077 98.9705 40.0188 98.9274 40.5286V41.5836C98.9581 42.046 98.8621 42.5081 98.6497 42.9199L99.4836 43.2012L99.4135 43.5525V43.5534ZM97.3262 39.33C96.7188 39.33 96.6325 39.5865 96.6325 40.5269V41.7238C96.6325 42.6514 96.7726 42.9207 97.257 42.9207C97.8209 42.9207 97.8824 42.6933 97.8824 41.7948V40.4542C97.8824 39.4668 97.8167 39.33 97.3262 39.33Z" fill="#818487"/>
<path d="M125.587 42.9182C125.171 42.9182 124.893 42.6369 124.754 42.1445L123.921 42.2855C123.921 43.055 124.407 43.6928 125.518 43.6928C125.931 43.7217 126.34 43.5925 126.663 43.3313C126.985 43.0701 127.196 42.6964 127.253 42.2855C127.253 41.0886 125.032 40.5269 125.032 39.7523C125.032 39.4711 125.309 39.33 125.587 39.33C126.004 39.33 126.212 39.6113 126.42 40.0336L127.115 39.7523C127.098 39.5623 127.043 39.3776 126.952 39.2097C126.862 39.0417 126.738 38.894 126.588 38.7755C126.439 38.657 126.267 38.5702 126.083 38.5205C125.899 38.4707 125.707 38.4591 125.518 38.4862C124.685 38.4862 123.99 38.9077 123.99 39.7523C123.99 41.1596 126.212 41.511 126.212 42.4257C126.212 42.778 126.004 42.9182 125.587 42.9182" fill="#818487"/>
<path d="M118.06 43.692C116.814 43.692 116.394 43.2662 116.394 42.0043V40.3859C116.394 39.1257 116.954 38.4862 118.06 38.4862C119.321 38.4862 119.726 38.9137 119.726 40.2448V41.7923C119.726 43.2132 119.305 43.692 118.06 43.692ZM118.06 39.2599C117.482 39.2599 117.435 39.7378 117.435 40.3158V41.8632C117.435 42.6079 117.521 42.9191 118.06 42.9191C118.504 42.9191 118.685 42.5934 118.685 41.7931V40.3158C118.682 39.8054 118.634 39.2599 118.057 39.2599H118.06Z" fill="#818487"/>
<path d="M134.936 39.2599C135.423 39.2599 135.7 39.6121 135.769 40.1046L136.463 39.8233C136.455 39.6273 136.407 39.4351 136.32 39.259C136.234 39.083 136.111 38.927 135.961 38.8011C135.811 38.6752 135.636 38.5821 135.447 38.5278C135.259 38.4736 135.061 38.4594 134.867 38.4862C133.479 38.4862 133.201 39.2599 133.201 40.3149V41.7931C133.201 43.2738 133.618 43.6919 135.007 43.6919C136.081 43.6919 136.395 43.1789 136.395 42.6369V41.0194H134.936V41.7888H135.423V42.3514C135.423 42.7737 135.283 42.9849 134.936 42.9849C134.243 42.9849 134.173 42.4924 134.173 41.788V40.6671C134.173 39.8224 134.242 39.2599 134.936 39.2599" fill="#818487"/>
<path d="M123.423 38.6263H122.451V41.5109C122.451 42.636 122.381 42.9182 121.826 42.9182C121.27 42.9182 121.201 42.4958 121.201 41.4408V38.6263H120.16V41.5109C120.16 43.1994 120.445 43.7389 121.903 43.7389C123.014 43.7389 123.423 43.1285 123.423 41.6511V38.6263Z" fill="#818487"/>
<path d="M132.697 43.6226V38.6272H131.864V41.723L130.753 38.6272H129.434V43.6226H130.267V40.2456L131.447 43.6226H132.697Z" fill="#818487"/>
<path d="M99.9263 38.6263V41.6511C99.9263 43.0584 100.066 43.6919 101.454 43.6919C103.051 43.6919 103.12 42.9182 103.12 41.5109V38.6263H102.148V41.581C102.148 42.5659 102.009 42.8472 101.523 42.8472C100.968 42.8472 100.899 42.5659 100.899 41.44V38.6263H99.9263Z" fill="#818487"/>
<path d="M115.675 43.6226V38.6272H114.703V40.5269H113.523V38.6272H112.551V43.6226H113.523V41.3716H114.703V43.6226H115.675Z" fill="#818487"/>
<path d="M94.8844 39.4009V38.6272H92.3853V43.6226H94.8844V42.8481H93.3576V41.4417H94.7451V40.7372H93.3576V39.4009H94.8844Z" fill="#818487"/>
<path d="M107.733 38.6272V43.6226H110.025V42.8481H108.566V38.6272H107.733Z" fill="#818487"/>
<path d="M127.762 43.6226H128.664V38.6272H127.762V43.6226Z" fill="#818487"/>
</g>
<defs>
<clipPath id="clip0_5895_27551">
<rect width="139" height="51" fill="white"/>
</clipPath>
</defs>
</svg>
