<svg width="282" height="50" viewBox="0 0 282 50" fill="none" xmlns="http://www.w3.org/2000/svg">
<path d="M13.9985 32H0L8.70229 20.3522L13.9985 32Z" fill="white"/>
<path d="M13.3646 14.0604L15.5856 32L9 19.9658L13.3646 14.0604Z" fill="white"/>
<path d="M17.2941 9.20173L20.6098 13.6221L17.2941 32L14 13.6095L17.2941 9.20173Z" fill="white"/>
<path d="M20.1661 14.0345L24.5746 19.926L18 32L20.1661 14.0345Z" fill="white"/>
<path d="M25.2166 20.316L33.9556 32H20L25.2166 20.316" fill="white"/>
<path d="M45.8531 23.2671C49.0539 23.4911 50.5246 22.5113 50.5246 19.7942C50.5246 17.6943 49.3134 16.5468 47.0068 16.5468H45.8531V23.2671ZM42.1343 18.3384C42.1343 16.9684 41.8164 16.4363 40 16.0995V15.6224H48.017C52.6879 15.6224 54.5627 17.4423 54.5627 19.7387C54.5627 21.417 53.5825 22.9588 51.1599 23.6278V23.6861C53.0336 24.1064 54.8501 29.3408 56.3793 30.8261C56.8118 31.2464 57.1854 31.4137 57.9067 31.5244V32H53.0336C51.1884 29.8718 49.9775 26.2056 48.6794 24.9457C47.9303 24.2171 47.3534 24.1899 45.8531 24.1899V29.2298C45.8531 30.6852 46.4604 31.3018 48.017 31.5244V32H40V31.5244C41.386 31.4137 42.1343 30.7418 42.1343 29.4264V18.3384" fill="white"/>
<path d="M69.0541 27.627H68.6303C68.4742 26.5242 67.8938 26.0043 66.8238 26.0043H64.526V29.7267C64.526 30.8751 65.0161 31.2856 66.3123 31.2856H67.0688C68.6743 31.2856 69.3894 30.1393 69.811 28.9257H70.1909L69.9458 32H60V31.6317C61.4489 31.3303 61.6508 30.896 61.6508 29.5997V21.4571C61.6508 20.3524 61.3804 19.9624 60 19.7018V19.3347H69.7896V22.1476H69.4104C68.9856 20.5253 68.496 20.0495 67.0475 20.0495H64.526V25.2885H66.8238C67.872 25.2885 68.3626 24.8562 68.6303 23.7078H69.0541V27.627Z" fill="white"/>
<path d="M85.1526 31.0908C83.906 31.6746 82.0533 32 80.0903 32C75.3851 32 73 28.6884 73 25.4398C73 21.5646 76.0099 18.6858 80.0903 18.6858C82.0746 18.6858 82.9676 19.4417 83.8157 19.4417C84.1719 19.4417 84.4175 19.3327 84.7528 19.0092H85.1526V22.5597H84.7528C83.9705 20.632 82.2329 19.3993 80.2695 19.3993C77.5931 19.3993 76.1203 21.7375 76.1203 25.6575C76.1203 29.7047 77.9066 31.2859 80.3131 31.2859C81.4964 31.2859 82.2769 30.9818 82.2769 29.9441V28.0591C82.2769 27.2368 81.9417 26.6957 80.9392 26.4997V26.1323H86.4263V26.4997C85.4648 26.7608 85.1526 27.2368 85.1526 28.4074V31.0908Z" fill="white"/>
<path d="M93.5255 29.8569C93.5255 30.9836 93.8168 31.3073 95.1758 31.6317V32H89V31.6317C90.6037 31.243 90.6472 30.8103 90.6472 29.5763V21.4788C90.6472 20.3524 90.3586 20.0282 89 19.7018V19.3347H95.1758V19.7018C93.6158 20.0495 93.5255 20.5253 93.5255 21.738V29.8569" fill="white"/>
<path d="M105.091 19.3993C102.525 19.3993 101.122 21.4551 101.122 25.4616C101.122 28.5156 102.147 31.2859 105.091 31.2859C107.277 31.2859 109.083 29.6196 109.083 25.4398C109.083 21.8886 107.948 19.3993 105.091 19.3993ZM105.091 32C100.966 32 98 29.2283 98 25.3543C98 21.4781 100.966 18.6858 105.091 18.6858C109.24 18.6858 112.205 21.4781 112.205 25.3543C112.205 29.2283 109.24 32 105.091 32" fill="white"/>
<path d="M126.425 32H125.999L116.608 21.7138V29.4648C116.608 30.8516 117.032 31.2413 118.528 31.478V31.8463H114.023V31.478C115.429 31.2625 115.76 30.5263 115.739 29.2919V20.8037C114.737 19.8086 114.536 19.6581 114 19.548V19.181H117.925L125.553 27.6696V21.973C125.553 20.4373 125.285 19.851 123.902 19.548V19.181H128.317V19.548C126.825 19.6364 126.425 20.5028 126.425 21.6268V32" fill="white"/>
<path d="M138.673 22.0181H138.294C137.801 20.5456 136.4 19.3993 135.059 19.3993C133.878 19.3993 132.92 20.1556 132.92 21.1094C132.92 21.5855 133.164 22.062 133.566 22.4519C134.214 23.0792 137.203 24.616 138.004 25.3957C138.986 26.3481 139.43 27.2151 139.43 28.3196C139.43 31.1117 136.844 32 135.239 32C133.675 32 132.718 31.5018 132.049 31.5018C131.759 31.5018 131.514 31.6529 131.381 31.9152H131V28.1038H131.381C131.759 29.988 133.01 31.2859 134.882 31.2859C136.285 31.2859 137.291 30.5288 137.291 29.4889C137.291 29.0784 137.113 28.5156 136.62 28.0386C135.618 27.0626 133.32 26.1323 132.228 25.0711C131.446 24.3144 131.067 23.3823 131.067 22.386C131.067 20.1999 132.762 18.6858 135.172 18.6858C135.665 18.6858 136.108 18.7717 136.509 18.8568C136.91 18.9452 137.291 19.0311 137.625 19.0311C137.827 19.0311 138.047 18.9228 138.294 18.6858H138.673V22.0181Z" fill="white"/>
<path fill-rule="evenodd" clip-rule="evenodd" d="M153.24 50V0.000206293H153V50H153.24Z" fill="white"/>
<path d="M258.485 14.7835H255.035L254.95 15.2867C255.737 15.2867 256.189 15.4632 256.305 15.8224C256.424 16.1824 256.391 16.8724 256.21 17.889L255.042 24.5314C254.848 25.6344 254.677 26.4676 254.528 27.0267C254.379 27.5877 254.192 28.084 253.966 28.517C253.945 28.5682 253.92 28.6165 253.892 28.6676C253.865 28.7181 253.84 28.7672 253.82 28.8175C253.434 29.5028 252.921 30.0415 252.278 30.4333C251.636 30.8268 250.938 31.0216 250.191 31.0216C249.628 31.0216 249.162 30.8901 248.79 30.6215C248.418 30.355 248.137 29.9542 247.944 29.4202C247.918 29.3529 247.897 29.2934 247.881 29.2444C247.867 29.1932 247.85 29.1354 247.838 29.0686C247.734 28.6676 247.7 28.2 247.738 27.6655C247.777 27.1317 247.903 26.2461 248.121 25.0054L249.835 15.2867H251.296L251.385 14.7835H245.634L245.546 15.2867H247.007L245.198 25.5608C244.804 27.7833 245 29.41 245.778 30.4471C246.555 31.4821 247.74 32 249.324 32C250.136 32 250.86 31.8692 251.501 31.6115C252.14 31.3545 252.721 30.9387 253.245 30.3715C253.786 29.7857 254.222 29.0686 254.552 28.2163C254.884 27.3655 255.185 26.1704 255.457 24.629L256.598 18.1412C256.796 17.0225 257.005 16.28 257.227 15.9119C257.447 15.5432 257.794 15.3352 258.264 15.2867H258.394L258.485 14.7835ZM267.38 14.7835L267.022 14.8094C266.943 15.1755 266.861 15.4285 266.776 15.5594C266.691 15.6945 266.56 15.7606 266.383 15.7606C266.211 15.7606 266.013 15.6909 265.794 15.5486C265.574 15.4066 265.325 15.2512 265.043 15.0835C264.76 14.9187 264.447 14.7645 264.102 14.6212C263.76 14.4794 263.37 14.4099 262.934 14.4099C261.784 14.4099 260.747 14.8744 259.82 15.8089C258.894 16.743 258.305 17.919 258.057 19.3371C258.04 19.4203 258.026 19.5066 258.009 19.598C257.993 19.6901 257.984 19.7781 257.981 19.8615C257.909 20.4777 257.909 21.077 257.981 21.6626C258.055 22.2462 258.234 22.745 258.522 23.161C258.799 23.579 259.176 23.8919 259.651 24.0991C260.125 24.3106 260.618 24.498 261.124 24.6651C261.159 24.68 261.193 24.6958 261.23 24.7032C261.267 24.7115 261.302 24.725 261.335 24.74C262.166 24.9923 262.898 25.3223 263.53 25.7312C264.165 26.1424 264.376 26.9468 264.165 28.1468C263.989 29.1292 263.595 29.9216 262.977 30.5235C262.361 31.1226 261.638 31.4225 260.815 31.4225C259.727 31.4225 258.919 30.8937 258.387 29.8335C257.857 28.7725 257.534 27.6089 257.423 26.3394C257.403 26.1547 257.393 25.9659 257.39 25.7735C257.385 25.5813 257.383 25.3836 257.379 25.1831H257.026L256.006 31.4974H256.324C256.325 31.4821 256.331 31.4649 256.333 31.4485C256.336 31.4316 256.345 31.4152 256.361 31.398C256.364 31.3823 256.366 31.3695 256.367 31.3607C256.367 31.3545 256.37 31.3388 256.375 31.3238C256.42 31.2733 256.46 31.2146 256.498 31.1466C256.535 31.0811 256.565 31.0158 256.589 30.9474L256.595 30.9229L256.598 30.8976C256.658 30.7789 256.721 30.6679 256.79 30.5589C256.859 30.4518 256.967 30.3966 257.117 30.3966C257.206 30.3966 257.365 30.4764 257.6 30.6331C257.833 30.7928 258.116 30.9646 258.445 31.1466C258.751 31.3318 259.093 31.4956 259.476 31.6367C259.857 31.7771 260.256 31.8658 260.673 31.8999H260.759H260.861C262.122 31.8999 263.252 31.3736 264.249 30.3203C265.246 29.2696 265.891 27.9145 266.181 26.2637C266.428 24.856 266.348 23.7174 265.94 22.8495C265.532 21.9822 264.856 21.379 263.917 21.0463C263.76 21.0135 263.609 20.9746 263.459 20.933C263.309 20.8921 263.165 20.8457 263.024 20.7946C262.865 20.7639 262.714 20.7244 262.567 20.6823C262.417 20.6433 262.266 20.595 262.112 20.5452C261.164 20.2628 260.531 19.9171 260.217 19.511C259.9 19.1031 259.815 18.4931 259.96 17.6783C260.094 16.9127 260.459 16.2603 261.055 15.7197C261.648 15.1796 262.309 14.9098 263.031 14.9098C264.143 14.9098 264.935 15.4544 265.414 16.5417C265.888 17.6315 266.106 18.8305 266.06 20.1455H266.435L267.38 14.7835ZM274.086 14.3569H273.805L267.261 29.1687C266.928 29.9194 266.609 30.4204 266.302 30.672C265.998 30.9229 265.559 31.0395 264.987 31.0216L264.902 31.4974H268.499L268.582 31.0216L268.278 31.0477C267.916 31.0477 267.654 30.9897 267.495 30.8732C267.332 30.7545 267.278 30.563 267.324 30.2951C267.355 30.1307 267.408 29.9337 267.485 29.7074C267.561 29.4816 267.654 29.2444 267.759 28.9929L268.999 26.2125H272.447L272.872 31.0216H271.449L271.365 31.4974H277.003L277.087 31.0216H275.887L274.086 14.3569ZM269.242 25.687L271.87 19.6923L272.407 25.687H269.242Z" fill="white"/>
<path d="M177.015 31.723L177.962 26.3365L177.603 26.3639C177.599 26.396 177.593 26.4308 177.594 26.464C177.594 26.4976 177.593 26.5302 177.587 26.565C177.58 26.597 177.575 26.6317 177.57 26.6653C177.563 26.6972 177.557 26.7313 177.552 26.7647C177.257 28.435 176.705 29.6022 175.894 30.2683C175.083 30.9391 174.105 31.2651 172.959 31.2472H170.299L171.716 23.2012H172.522C173.384 23.2012 173.963 23.5428 174.261 24.2252C174.558 24.9152 174.612 25.7919 174.425 26.8643H174.762L176.092 19.3178L175.713 19.3437C175.422 20.9956 174.977 21.9699 174.383 22.2604C173.788 22.5535 172.93 22.6913 171.811 22.6749L173.072 15.5122L175.841 15.5367C176.802 15.5367 177.503 15.9105 177.947 16.663C178.388 17.4144 178.504 18.4499 178.297 19.7699H178.653L179.435 15.0091H168.946L168.859 15.5122H170.32L167.546 31.2472H166.085L166 31.723H177.015ZM180.797 21.1969H178.943L178.869 21.6227H179.994L178.286 31.2984H177.163L177.088 31.723H181.771L181.846 31.2984H180.724L181.809 25.1333C181.968 24.2252 182.334 23.4383 182.91 22.7622C183.484 22.0857 184.072 21.7477 184.672 21.7477C185.059 21.7477 185.329 21.8807 185.481 22.1486C185.634 22.4157 185.669 22.7827 185.589 23.2516L184.17 31.2984H183.044L182.971 31.723H187.653L187.728 31.2984H186.603L187.864 24.1529C188.045 23.1179 187.916 22.3238 187.478 21.7736C187.037 21.2226 186.45 20.946 185.712 20.946C184.987 20.946 184.317 21.1462 183.695 21.5478C183.076 21.9469 182.556 22.5167 182.141 23.2516L182.492 21.1859L180.797 21.1969ZM196.494 27.7914L196.151 27.8166C195.73 28.9355 195.174 29.8244 194.483 30.4851C193.792 31.1437 193.059 31.4737 192.285 31.4737C191.787 31.4737 191.406 31.291 191.147 30.9249C190.885 30.5601 190.774 30.0707 190.806 29.455C190.833 29.0888 190.888 28.6096 190.966 28.0206C191.045 27.4302 191.142 26.7626 191.262 26.0128H196.695C196.904 24.6056 196.718 23.4011 196.133 22.398C195.546 21.3959 194.749 20.8955 193.737 20.8955C192.551 20.8955 191.455 21.4429 190.451 22.5371C189.445 23.6306 188.805 24.9725 188.526 26.565C188.249 28.1338 188.422 29.4323 189.046 30.4585C189.67 31.4873 190.589 32 191.799 32C192.848 32 193.78 31.6407 194.593 30.9227C195.406 30.2035 196.039 29.1605 196.494 27.7914V27.7914ZM191.352 25.5102C191.411 25.1768 191.472 24.8395 191.538 24.4979C191.605 24.1569 191.673 23.8203 191.745 23.4876C191.911 22.6913 192.124 22.1289 192.389 21.7953C192.654 21.4627 193.037 21.2978 193.536 21.2978C194.098 21.2978 194.407 21.5526 194.47 22.0598C194.528 22.5699 194.509 23.1342 194.413 23.7519C194.397 23.8517 194.381 23.9429 194.367 24.026C194.35 24.1119 194.335 24.1938 194.321 24.2782C194.309 24.3439 194.301 24.416 194.292 24.4912C194.285 24.5647 194.277 24.6396 194.265 24.7039C194.253 24.7705 194.241 24.8395 194.23 24.9056C194.219 24.9725 194.207 25.0303 194.199 25.0815L194.123 25.5102H191.352ZM199.434 21.1969H197.598L197.524 21.6227H198.649L196.943 31.2984H195.819L195.744 31.723H200.708L200.783 31.2984H199.358L200.361 25.6091C200.576 24.3875 200.85 23.4671 201.185 22.8493C201.518 22.2344 201.952 21.8321 202.483 21.648C202.468 21.6659 202.447 21.6849 202.425 21.7122C202.401 21.7361 202.38 21.7641 202.364 21.7982C202.236 21.9469 202.136 22.1132 202.061 22.2849C201.986 22.4621 201.928 22.6695 201.887 22.8997C201.805 23.3675 201.851 23.7603 202.025 24.0765C202.2 24.3943 202.451 24.5552 202.777 24.5552C203.161 24.5552 203.512 24.378 203.824 24.026C204.135 23.677 204.337 23.242 204.427 22.7239C204.532 22.1396 204.491 21.6802 204.305 21.3468C204.12 21.0113 203.812 20.8457 203.372 20.8457C202.925 20.8457 202.47 21.0202 202.016 21.3727C201.562 21.7232 201.175 22.1908 200.859 22.775L201.142 21.16L199.434 21.1969ZM211.238 22.775C211.38 22.7425 211.524 22.7041 211.669 22.6613C211.814 22.6204 211.96 22.5656 212.108 22.4991C212.803 22.2501 213.466 21.8526 214.098 21.3099C214.732 20.7666 215.138 19.9949 215.313 18.9926C215.529 17.7729 215.331 16.8846 214.725 16.325C214.119 15.7658 213.407 15.3942 212.59 15.2096C212.205 15.1252 211.823 15.0725 211.448 15.0473C211.072 15.0229 210.729 15.0024 210.419 14.9833L209.16 15.0091H205.451L205.364 15.5122H206.823L204.048 31.2472H202.589L202.505 31.723H208.031C209.866 31.723 211.346 31.3284 212.473 30.5342C213.599 29.7414 214.292 28.6096 214.551 27.139C214.776 25.8683 214.596 24.8804 214.015 24.1774C213.434 23.4767 212.734 23.0334 211.917 22.8493C211.807 22.8324 211.695 22.8167 211.578 22.7989C211.464 22.7827 211.35 22.7662 211.242 22.7512L211.238 22.775ZM208.174 23.1521H209.092C210.203 23.1521 210.96 23.4562 211.364 24.0684C211.768 24.6812 211.834 25.7605 211.563 27.3034C211.233 29.1782 210.633 30.3093 209.766 30.6964C208.9 31.0816 207.893 31.2651 206.746 31.2472L208.174 23.1521ZM209.516 15.5367C210.628 15.5367 211.491 15.723 212.105 16.0999C212.719 16.4749 212.869 17.5479 212.558 19.3178C212.269 20.954 211.731 21.9331 210.946 22.2501C210.159 22.5656 209.261 22.7184 208.254 22.7002L209.522 15.5122L209.516 15.5367ZM223.929 29.6199L223.656 29.5694C223.53 30.0031 223.395 30.3284 223.25 30.5458C223.107 30.7647 222.958 30.8722 222.807 30.8722C222.634 30.8722 222.523 30.7762 222.475 30.5845C222.427 30.3923 222.445 30.0623 222.529 29.5945L223.421 24.5292C223.55 23.7929 223.584 23.2271 223.524 22.8248C223.465 22.4239 223.288 22.0898 222.998 21.8226C222.731 21.5731 222.39 21.3597 221.979 21.1859C221.565 21.0094 221.133 20.8955 220.679 20.8457C220.591 20.8457 220.507 20.8436 220.428 20.8341C220.348 20.8253 220.266 20.8205 220.178 20.8205C219.155 20.8205 218.289 21.0551 217.582 21.5226C216.874 21.9904 216.456 22.5999 216.324 23.3518C216.235 23.8517 216.27 24.2526 216.43 24.5552C216.589 24.8545 216.843 25.0066 217.193 25.0066C217.505 25.0066 217.793 24.8633 218.054 24.5811C218.317 24.2954 218.486 23.9429 218.558 23.5271C218.609 23.242 218.598 23.017 218.528 22.8493C218.457 22.683 218.369 22.5494 218.263 22.4491C218.167 22.3489 218.078 22.2754 217.992 22.2228C217.908 22.1739 217.857 22.1234 217.841 22.0729L217.845 22.0489C217.875 21.8807 217.999 21.7441 218.218 21.6358C218.437 21.5267 218.666 21.4382 218.902 21.3727C219.122 21.3222 219.326 21.2895 219.507 21.2719C219.693 21.2555 219.81 21.2478 219.86 21.2478C220.559 21.2478 221.003 21.4218 221.191 21.7736C221.378 22.1234 221.391 22.7988 221.226 23.8012L220.944 25.5102H220.805H220.644C220.341 25.5259 220.001 25.5423 219.625 25.5588C219.247 25.5752 218.86 25.6187 218.459 25.6855C217.625 25.819 216.826 26.1164 216.066 26.5766C215.303 27.0348 214.825 27.825 214.627 28.9437C214.46 29.8947 214.611 30.6343 215.087 31.1606C215.563 31.685 216.301 31.9488 217.299 31.9488C217.884 31.9488 218.417 31.8283 218.89 31.5863C219.364 31.3441 219.777 30.9705 220.126 30.4721C220.186 30.9889 220.334 31.3646 220.573 31.5991C220.813 31.8322 221.145 31.9488 221.57 31.9488C222.12 31.9488 222.602 31.7442 223.016 31.3366C223.433 30.9263 223.736 30.3562 223.929 29.6199V29.6199ZM220.878 25.8866L220.383 28.6922C220.233 29.5442 219.969 30.1878 219.594 30.6222C219.217 31.055 218.735 31.2732 218.15 31.2732C217.638 31.2732 217.299 31.0641 217.137 30.6459C216.972 30.2301 216.972 29.5599 217.134 28.6422C217.245 28.0088 217.378 27.5195 217.532 27.1773C217.685 26.835 217.89 26.5813 218.144 26.4129C218.386 26.2466 218.703 26.126 219.09 26.0488C219.476 25.9746 220.073 25.9202 220.878 25.8866V25.8866ZM226.743 21.1969H224.888L224.814 21.6227H225.937L224.231 31.2984H223.107L223.033 31.723H227.715L227.791 31.2984H226.665L227.754 25.1333C227.912 24.2252 228.28 23.4383 228.856 22.7622C229.429 22.0857 230.017 21.7477 230.616 21.7477C231.002 21.7477 231.272 21.8807 231.427 22.1486C231.578 22.4157 231.614 22.7827 231.531 23.2516L230.112 31.2984H228.99L228.912 31.723H233.597L233.67 31.2984H232.549L233.807 24.1529C233.989 23.1179 233.861 22.3238 233.42 21.7736C232.981 21.2226 232.393 20.946 231.657 20.946C230.931 20.946 230.26 21.1462 229.639 21.5478C229.019 21.9469 228.501 22.5167 228.084 23.2516L228.444 21.16L226.743 21.1969ZM240.068 24.7543C240.173 24.6546 240.283 24.5497 240.396 24.4412C240.509 24.3316 240.619 24.2197 240.727 24.1024C240.771 24.0519 240.822 24.0023 240.875 23.954C240.927 23.9006 240.984 23.844 241.046 23.776C241.594 23.2271 242.148 22.7348 242.713 22.2999C243.275 21.8657 243.896 21.6392 244.574 21.6227L244.647 21.1969H240.565L240.491 21.6227L241.104 21.648C241.328 21.648 241.479 21.7013 241.552 21.811C241.628 21.9195 241.642 22.0982 241.598 22.3489C241.575 22.4826 241.502 22.6463 241.382 22.8371C241.258 23.0293 241.108 23.2176 240.924 23.4011C240.907 23.4343 240.878 23.4671 240.841 23.5019C240.805 23.5352 240.771 23.5597 240.745 23.5776L237.614 26.565L239.785 14.2579C239.631 14.558 239.425 14.7623 239.161 14.8715C238.896 14.9804 238.492 15.0254 237.948 15.0091H236.168L236.089 15.461H237.212L234.421 31.2984H233.297L233.223 31.723H237.605L237.679 31.2984H236.78L237.506 27.1895L237.981 26.7136L239.291 31.2984H238.373L238.297 31.723H243.206L243.28 31.2984H242.231L240.075 24.7296L240.068 24.7543" fill="white"/>
<path d="M278.606 16.0705H278.807C279.04 16.0705 279.227 15.9936 279.227 15.8046C279.227 15.6363 279.107 15.5258 278.84 15.5258C278.728 15.5258 278.649 15.5346 278.606 15.5476V16.0705ZM278.594 17.1083H278.172V15.2789C278.337 15.2456 278.571 15.2237 278.875 15.2237C279.22 15.2237 279.375 15.2789 279.509 15.3567C279.611 15.4359 279.686 15.5803 279.686 15.7576C279.686 15.9586 279.532 16.1169 279.309 16.183V16.2049C279.486 16.2729 279.587 16.4059 279.641 16.6507C279.697 16.9289 279.732 17.0407 279.776 17.1083H279.318C279.263 17.0407 279.227 16.8729 279.174 16.6617C279.14 16.4612 279.029 16.3727 278.797 16.3727H278.594V17.1083ZM277.469 16.1505C277.469 16.9614 278.07 17.6093 278.895 17.6093C279.697 17.6093 280.288 16.9614 280.288 16.1599C280.288 15.3457 279.697 14.6886 278.884 14.6886C278.07 14.6886 277.469 15.3457 277.469 16.1505V16.1505ZM280.758 16.1505C280.758 17.1852 279.944 18 278.884 18C277.836 18 277 17.1852 277 16.1505C277 15.1345 277.836 14.3217 278.884 14.3217C279.944 14.3217 280.758 15.1345 280.758 16.1505" fill="white"/>
</svg>
