<?xml version="1.0" encoding="utf-8"?>
<!-- Generator: Adobe Illustrator 26.2.1, SVG Export Plug-In . SVG Version: 6.00 Build 0)  -->
<svg version="1.1" id="Layer_1" xmlns="http://www.w3.org/2000/svg" xmlns:xlink="http://www.w3.org/1999/xlink" x="0px" y="0px"
	 viewBox="0 0 297 98.7" style="enable-background:new 0 0 297 98.7;" xml:space="preserve">
<style type="text/css">
	.st0{fill:#4D4D4E;}
	.st1{fill:#8DC63F;}
	.st2{fill:#5E9732;}
	.st3{fill:#58595B;}
	.st4{fill:#0088CE;}
	.st5{fill:#29A8E0;}
</style>
<g>
	<g>
		<polygon class="st0" points="235.7,20.4 235.7,21.5 279.8,21.5 279.8,83.7 17.2,83.7 17.2,21.5 61.9,21.5 61.9,20.4 16.3,20.4 
			16.3,84.7 280.7,84.7 280.7,20.4 		"/>
	</g>
	<g>
		<g>
			<g>
				<g>
					<polyline class="st1" points="74.2,27.3 66,27.3 71.1,20.5 74.2,27.3 					"/>
				</g>
				<g>
					<polyline class="st1" points="73.9,16.8 75.2,27.3 71.3,20.2 73.9,16.8 					"/>
				</g>
				<g>
					<polyline class="st1" points="76,13.9 77.9,16.5 76,27.3 74,16.5 76,13.9 					"/>
				</g>
			</g>
			<g>
				<polyline class="st1" points="78.1,16.8 80.7,20.2 76.8,27.3 78.1,16.8 				"/>
			</g>
			<g>
				<polyline class="st1" points="80.8,20.4 86,27.3 77.8,27.3 80.8,20.4 				"/>
			</g>
			<g>
				<path class="st2" d="M90.8,19.3c0-0.8-0.2-1.1-1.3-1.3v-0.3h4.7c2.7,0,3.8,1.1,3.8,2.4c0,1-0.6,1.9-2,2.3v0
					c1.1,0.2,2.2,3.3,3.1,4.2c0.3,0.2,0.5,0.3,0.9,0.4v0.3h-2.9c-1.1-1.3-1.8-3.4-2.6-4.1c-0.4-0.4-0.8-0.4-1.7-0.4v3
					c0,0.9,0.4,1.2,1.3,1.3v0.3h-4.7v-0.3c0.8-0.1,1.3-0.5,1.3-1.2V19.3 M93,22.2c1.9,0.1,2.7-0.4,2.7-2c0-1.2-0.7-1.9-2.1-1.9H93
					V22.2"/>
			</g>
			<g>
				<path class="st2" d="M106.6,24.8h-0.2c-0.1-0.6-0.4-1-1.1-1h-1.4V26c0,0.7,0.3,0.9,1,0.9h0.4c0.9,0,1.4-0.7,1.6-1.4h0.2
					l-0.1,1.8h-5.8v-0.2c0.9-0.2,1-0.4,1-1.2v-4.8c0-0.6-0.2-0.9-1-1v-0.2h5.8v1.7h-0.2c-0.2-1-0.5-1.2-1.4-1.2h-1.5v3.1h1.4
					c0.6,0,0.9-0.3,1.1-0.9h0.2V24.8"/>
			</g>
			<g>
				<path class="st2" d="M115.9,27c-0.7,0.3-1.8,0.5-3,0.5c-2.8,0-4.2-1.9-4.2-3.9c0-2.3,1.8-4,4.2-4c1.2,0,1.7,0.4,2.2,0.4
					c0.2,0,0.4-0.1,0.6-0.3h0.2V22h-0.2c-0.5-1.1-1.5-1.9-2.6-1.9c-1.6,0-2.4,1.4-2.4,3.7c0,2.4,1,3.3,2.5,3.3
					c0.7,0,1.2-0.2,1.2-0.8v-1.1c0-0.5-0.2-0.8-0.8-0.9v-0.2h3.2v0.2c-0.6,0.2-0.7,0.4-0.7,1.1V27"/>
			</g>
			<g>
				<path class="st2" d="M120.8,26.1c0,0.7,0.2,0.9,1,1v0.2h-3.6v-0.2c0.9-0.2,1-0.5,1-1.2v-4.8c0-0.7-0.2-0.9-1-1v-0.2h3.6v0.2
					c-0.9,0.2-1,0.5-1,1.2V26.1"/>
			</g>
			<g>
				<path class="st2" d="M127.7,27.5c-2.4,0-4.2-1.6-4.2-3.9c0-2.3,1.7-3.9,4.2-3.9c2.4,0,4.2,1.6,4.2,3.9
					C131.9,25.9,130.1,27.5,127.7,27.5 M127.7,20.1c-1.5,0-2.3,1.2-2.3,3.6c0,1.8,0.6,3.4,2.3,3.4c1.3,0,2.3-1,2.3-3.4
					C130.1,21.6,129.4,20.1,127.7,20.1"/>
			</g>
			<g>
				<path class="st2" d="M140.5,27.4h-0.3l-5.5-6v4.6c0,0.8,0.2,1,1.1,1.2v0.2h-2.6v-0.2c0.8-0.1,1-0.6,1-1.3v-5
					c-0.6-0.6-0.7-0.7-1-0.7v-0.2h2.3l4.5,5v-3.3c0-0.9-0.2-1.2-1-1.4v-0.2h2.6v0.2c-0.9,0.1-1.1,0.6-1.1,1.2V27.4"/>
			</g>
			<g>
				<path class="st2" d="M147.5,21.7h-0.2c-0.3-0.9-1.1-1.5-1.9-1.5c-0.7,0-1.3,0.4-1.3,1c0,0.3,0.1,0.6,0.4,0.8
					c0.4,0.4,2.1,1.3,2.6,1.7c0.6,0.6,0.8,1.1,0.8,1.7c0,1.6-1.5,2.2-2.5,2.2c-0.9,0-1.5-0.3-1.9-0.3c-0.2,0-0.3,0.1-0.4,0.2h-0.2
					v-2.2h0.2c0.2,1.1,1,1.9,2.1,1.9c0.8,0,1.4-0.4,1.4-1.1c0-0.2-0.1-0.6-0.4-0.9c-0.6-0.6-1.9-1.1-2.6-1.7c-0.5-0.4-0.7-1-0.7-1.6
					c0-1.3,1-2.2,2.4-2.2c0.3,0,0.6,0.1,0.8,0.1c0.2,0.1,0.5,0.1,0.7,0.1c0.1,0,0.2-0.1,0.4-0.2h0.2V21.7"/>
			</g>
		</g>
		<g>
			<rect x="155.6" y="11.8" class="st3" width="0.5" height="22.7"/>
		</g>
		<g>
			<g>
				<g>
					<path class="st1" d="M224.3,23.8l1.5-3.5l0.3,3.5H224.3z M227.1,17.2h-0.2l-3.8,8.7c-0.2,0.4-0.4,0.7-0.6,0.9
						c-0.2,0.1-0.4,0.2-0.8,0.2l0,0.3h2.1l0-0.3l-0.2,0c-0.2,0-0.4,0-0.5-0.1c-0.1-0.1-0.1-0.2-0.1-0.3c0-0.1,0-0.2,0.1-0.3
						c0-0.1,0.1-0.3,0.2-0.4l0.7-1.6h2l0.3,2.8h-0.8l0,0.3h3.3l0-0.3h-0.7L227.1,17.2z M223.2,17.4l-0.2,0c0,0.2-0.1,0.4-0.1,0.4
						c-0.1,0.1-0.1,0.1-0.2,0.1c-0.1,0-0.2,0-0.3-0.1c-0.1-0.1-0.3-0.2-0.4-0.3c-0.2-0.1-0.4-0.2-0.6-0.3c-0.2-0.1-0.4-0.1-0.7-0.1
						c-0.7,0-1.3,0.3-1.8,0.8c-0.5,0.5-0.9,1.2-1,2.1c0,0,0,0.1,0,0.2c0,0.1,0,0.1,0,0.2c0,0.4,0,0.7,0,1.1c0,0.3,0.1,0.6,0.3,0.9
						c0.2,0.2,0.4,0.4,0.7,0.6c0.3,0.1,0.6,0.2,0.9,0.3c0,0,0,0,0.1,0c0,0,0,0,0.1,0c0.5,0.1,0.9,0.3,1.3,0.6
						c0.4,0.2,0.5,0.7,0.4,1.4c-0.1,0.6-0.3,1-0.7,1.4c-0.4,0.4-0.8,0.5-1.3,0.5c-0.6,0-1.1-0.3-1.4-0.9c-0.3-0.6-0.5-1.3-0.6-2.1
						c0-0.1,0-0.2,0-0.3c0-0.1,0-0.2,0-0.3h-0.2l-0.6,3.7h0.2c0,0,0,0,0,0c0,0,0,0,0,0c0,0,0,0,0,0c0,0,0,0,0,0c0,0,0.1-0.1,0.1-0.1
						c0,0,0-0.1,0.1-0.1l0,0l0,0c0-0.1,0.1-0.1,0.1-0.2c0-0.1,0.1-0.1,0.2-0.1c0.1,0,0.1,0,0.3,0.1c0.1,0.1,0.3,0.2,0.5,0.3
						c0.2,0.1,0.4,0.2,0.6,0.3c0.2,0.1,0.5,0.1,0.7,0.2h0.1h0.1c0.7,0,1.4-0.3,2-0.9c0.6-0.6,1-1.4,1.1-2.4c0.1-0.8,0.1-1.5-0.1-2
						c-0.2-0.5-0.6-0.9-1.2-1.1c-0.1,0-0.2,0-0.3-0.1c-0.1,0-0.2-0.1-0.3-0.1c-0.1,0-0.2,0-0.3-0.1c-0.1,0-0.2-0.1-0.3-0.1
						c-0.6-0.2-0.9-0.4-1.1-0.6c-0.2-0.2-0.2-0.6-0.2-1.1c0.1-0.4,0.3-0.8,0.6-1.2c0.3-0.3,0.7-0.5,1.2-0.5c0.7,0,1.1,0.3,1.4,1
						c0.3,0.6,0.4,1.3,0.4,2.1h0.2L223.2,17.4z M217.9,17.4h-2l-0.1,0.3c0.5,0,0.7,0.1,0.8,0.3c0.1,0.2,0.1,0.6-0.1,1.2l-0.7,3.9
						c-0.1,0.6-0.2,1.1-0.3,1.5c-0.1,0.3-0.2,0.6-0.3,0.9c0,0,0,0.1,0,0.1c0,0,0,0.1,0,0.1c-0.2,0.4-0.5,0.7-0.9,0.9
						c-0.4,0.2-0.8,0.3-1.2,0.3c-0.3,0-0.6-0.1-0.8-0.2c-0.2-0.2-0.4-0.4-0.5-0.7c0,0,0-0.1,0-0.1c0,0,0-0.1,0-0.1
						c-0.1-0.2-0.1-0.5-0.1-0.8c0-0.3,0.1-0.8,0.2-1.6l1-5.7h0.9l0.1-0.3h-3.4l-0.1,0.3h0.9l-1.1,6c-0.2,1.3-0.1,2.3,0.3,2.9
						c0.5,0.6,1.2,0.9,2.1,0.9c0.5,0,0.9-0.1,1.3-0.2c0.4-0.2,0.7-0.4,1-0.7c0.3-0.3,0.6-0.8,0.8-1.3c0.2-0.5,0.4-1.2,0.5-2.1
						l0.7-3.8c0.1-0.7,0.2-1.1,0.4-1.3c0.1-0.2,0.3-0.3,0.6-0.4h0.1L217.9,17.4z"/>
				</g>
				<g>
					<path class="st4" d="M207.2,23.1c0.1-0.1,0.1-0.1,0.2-0.2c0.1-0.1,0.1-0.1,0.2-0.2c0,0,0.1-0.1,0.1-0.1c0,0,0.1-0.1,0.1-0.1
						c0.3-0.3,0.6-0.6,1-0.9c0.3-0.3,0.7-0.4,1.1-0.4l0-0.3h-2.4l0,0.3l0.4,0c0.1,0,0.2,0,0.3,0.1c0,0.1,0.1,0.2,0,0.3
						c0,0.1-0.1,0.2-0.1,0.3c-0.1,0.1-0.2,0.2-0.3,0.3c0,0,0,0,0,0.1c0,0,0,0-0.1,0l-1.8,1.8l1.3-7.2c-0.1,0.2-0.2,0.3-0.4,0.4
						c-0.2,0.1-0.4,0.1-0.7,0.1h-1l0,0.3h0.7l-1.6,9.3h-0.7l0,0.2h2.6l0-0.2h-0.5l0.4-2.4l0.3-0.3l0.8,2.7h-0.5l0,0.2h2.9l0-0.2
						h-0.6L207.2,23.1L207.2,23.1z M199.4,21.1h-1.1l0,0.3h0.7l-1,5.7h-0.7l0,0.2h2.8l0-0.2h-0.7l0.6-3.6c0.1-0.5,0.3-1,0.6-1.4
						c0.3-0.4,0.7-0.6,1-0.6c0.2,0,0.4,0.1,0.5,0.2c0.1,0.2,0.1,0.4,0.1,0.6l-0.8,4.7h-0.7l0,0.2h2.8l0-0.2h-0.7l0.7-4.2
						c0.1-0.6,0-1.1-0.2-1.4c-0.3-0.3-0.6-0.5-1-0.5c-0.4,0-0.8,0.1-1.2,0.4c-0.4,0.2-0.7,0.6-0.9,1l0.2-1.2 M196,23.8l-0.3,1.6
						c-0.1,0.5-0.2,0.9-0.5,1.1c-0.2,0.3-0.5,0.4-0.8,0.4c-0.3,0-0.5-0.1-0.6-0.4c-0.1-0.2-0.1-0.6,0-1.2c0.1-0.4,0.1-0.7,0.2-0.9
						c0.1-0.2,0.2-0.4,0.4-0.4c0.1-0.1,0.3-0.2,0.6-0.2C195.1,23.9,195.5,23.8,196,23.8 M197.7,26l-0.2,0c-0.1,0.3-0.2,0.4-0.2,0.6
						c-0.1,0.1-0.2,0.2-0.3,0.2c-0.1,0-0.2-0.1-0.2-0.2c0-0.1,0-0.3,0-0.6l0.5-3c0.1-0.4,0.1-0.8,0.1-1c0-0.2-0.1-0.4-0.3-0.6
						c-0.2-0.1-0.4-0.3-0.6-0.4c-0.2-0.1-0.5-0.2-0.8-0.2c-0.1,0-0.1,0-0.1,0c0,0-0.1,0-0.1,0c-0.6,0-1.1,0.1-1.5,0.4
						c-0.4,0.3-0.7,0.6-0.7,1.1c-0.1,0.3,0,0.5,0.1,0.7c0.1,0.2,0.2,0.3,0.4,0.3c0.2,0,0.4-0.1,0.5-0.3c0.2-0.2,0.3-0.4,0.3-0.6
						c0-0.2,0-0.3,0-0.4c0-0.1-0.1-0.2-0.2-0.2c-0.1-0.1-0.1-0.1-0.2-0.1c0,0-0.1-0.1-0.1-0.1l0,0c0-0.1,0.1-0.2,0.2-0.2
						c0.1-0.1,0.3-0.1,0.4-0.2c0.1,0,0.2,0,0.4-0.1c0.1,0,0.2,0,0.2,0c0.4,0,0.7,0.1,0.8,0.3c0.1,0.2,0.1,0.6,0,1.2l-0.2,1h-0.1
						h-0.1c-0.2,0-0.4,0-0.6,0c-0.2,0-0.4,0-0.7,0.1c-0.5,0.1-1,0.3-1.4,0.5c-0.4,0.3-0.7,0.7-0.8,1.4c-0.1,0.6,0,1,0.3,1.3
						c0.3,0.3,0.7,0.5,1.3,0.5c0.3,0,0.7-0.1,0.9-0.2c0.3-0.1,0.5-0.4,0.7-0.7c0,0.3,0.1,0.5,0.3,0.7c0.1,0.1,0.3,0.2,0.6,0.2
						c0.3,0,0.6-0.1,0.8-0.4C197.5,26.8,197.6,26.4,197.7,26 M189.3,17.7c0.7,0,1.2,0.1,1.5,0.3c0.4,0.2,0.4,0.9,0.3,1.9
						c-0.2,1-0.5,1.5-0.9,1.7c-0.5,0.2-1,0.3-1.6,0.3L189.3,17.7L189.3,17.7z M188.5,22.2h0.5c0.7,0,1.1,0.2,1.3,0.5
						c0.2,0.4,0.3,1,0.1,1.9c-0.2,1.1-0.5,1.8-1.1,2c-0.5,0.2-1.1,0.3-1.8,0.3L188.5,22.2z M190.3,22c0.1,0,0.2,0,0.3-0.1
						c0.1,0,0.2-0.1,0.3-0.1c0.4-0.1,0.8-0.4,1.2-0.7c0.4-0.3,0.6-0.8,0.7-1.4c0.1-0.7,0-1.2-0.3-1.6c-0.4-0.3-0.8-0.5-1.3-0.7
						c-0.2,0-0.5-0.1-0.7-0.1c-0.2,0-0.4,0-0.6,0l-0.7,0h-2.2l-0.1,0.3h0.9l-1.6,9.2h-0.9l0,0.3h3.2c1.1,0,1.9-0.2,2.6-0.7
						c0.7-0.5,1.1-1.1,1.2-2c0.1-0.7,0-1.3-0.3-1.7c-0.3-0.4-0.8-0.7-1.2-0.8c-0.1,0-0.1,0-0.2,0C190.4,22,190.4,22,190.3,22
						L190.3,22z M183.4,21.1h-1.1l0,0.3h0.7l-1,5.7h-0.7l0,0.2h2.9l0-0.2h-0.8l0.6-3.3c0.1-0.7,0.3-1.3,0.5-1.6
						c0.2-0.4,0.5-0.6,0.8-0.7c0,0,0,0,0,0c0,0,0,0,0,0.1c-0.1,0.1-0.1,0.2-0.2,0.3c0,0.1-0.1,0.2-0.1,0.4c0,0.3,0,0.5,0.1,0.7
						c0.1,0.2,0.2,0.3,0.4,0.3c0.2,0,0.4-0.1,0.6-0.3c0.2-0.2,0.3-0.5,0.4-0.8c0.1-0.3,0-0.6-0.1-0.8c-0.1-0.2-0.3-0.3-0.5-0.3
						c-0.3,0-0.5,0.1-0.8,0.3c-0.3,0.2-0.5,0.5-0.7,0.8l0.2-0.9 M178.6,23.6c0-0.2,0.1-0.4,0.1-0.6c0-0.2,0.1-0.4,0.1-0.6
						c0.1-0.5,0.2-0.8,0.4-1c0.2-0.2,0.4-0.3,0.7-0.3c0.3,0,0.5,0.1,0.5,0.4c0,0.3,0,0.6,0,1c0,0.1,0,0.1,0,0.2c0,0.1,0,0.1,0,0.1
						c0,0,0,0.1,0,0.1c0,0,0,0.1,0,0.1c0,0,0,0.1,0,0.1c0,0,0,0.1,0,0.1l0,0.3H178.6z M181.6,24.9l-0.2,0c-0.2,0.7-0.6,1.2-1,1.6
						c-0.4,0.4-0.8,0.6-1.3,0.6c-0.3,0-0.5-0.1-0.7-0.3c-0.2-0.2-0.2-0.5-0.2-0.9c0-0.2,0-0.5,0.1-0.8c0-0.3,0.1-0.7,0.2-1.2h3.2
						c0.1-0.8,0-1.5-0.3-2.1c-0.3-0.6-0.8-0.9-1.4-0.9c-0.7,0-1.3,0.3-1.9,1c-0.6,0.6-1,1.4-1.1,2.4c-0.2,0.9-0.1,1.7,0.3,2.3
						c0.4,0.6,0.9,0.9,1.6,0.9c0.6,0,1.2-0.2,1.6-0.6C181,26.4,181.4,25.7,181.6,24.9 M172.4,21.1h-1.1l0,0.3h0.7l-1,5.7h-0.7l0,0.2
						h2.8l0-0.2h-0.7l0.6-3.6c0.1-0.5,0.3-1,0.6-1.4c0.3-0.4,0.7-0.6,1-0.6c0.2,0,0.4,0.1,0.5,0.2c0.1,0.2,0.1,0.4,0.1,0.6l-0.8,4.7
						h-0.7l0,0.2h2.8l0-0.2h-0.7l0.7-4.2c0.1-0.6,0-1.1-0.2-1.4c-0.3-0.3-0.6-0.5-1-0.5c-0.4,0-0.8,0.1-1.2,0.4
						c-0.4,0.2-0.7,0.6-0.9,1l0.2-1.2 M170.2,27.2l0.6-3.2l-0.2,0c0,0,0,0,0,0.1c0,0,0,0,0,0.1c0,0,0,0,0,0.1c0,0,0,0,0,0.1
						c-0.2,1-0.5,1.7-1,2.1c-0.5,0.4-1.1,0.6-1.7,0.6h-1.6l0.8-4.7h0.5c0.5,0,0.8,0.2,1,0.6c0.2,0.4,0.2,0.9,0.1,1.6h0.2l0.8-4.4
						l-0.2,0c-0.2,1-0.4,1.5-0.8,1.7c-0.3,0.2-0.9,0.3-1.5,0.2l0.7-4.2l1.6,0c0.6,0,1,0.2,1.2,0.7c0.3,0.4,0.3,1.1,0.2,1.8h0.2
						l0.5-2.8h-6.2l-0.1,0.3h0.9l-1.6,9.2h-0.9l-0.1,0.3H170.2z"/>
				</g>
				<g>
					<g>
						<path class="st1" d="M231,18.3c0,0.6-0.5,1.1-1.1,1.1c-0.6,0-1.1-0.5-1.1-1.1c0-0.6,0.5-1.1,1.1-1.1
							C230.5,17.2,231,17.7,231,18.3z M229.1,18.3c0,0.5,0.4,0.9,0.8,0.9c0.5,0,0.8-0.4,0.8-0.9c0-0.5-0.3-0.9-0.8-0.9
							C229.4,17.5,229.1,17.8,229.1,18.3z M229.7,18.9h-0.2v-1.1c0.1,0,0.2,0,0.4,0c0.2,0,0.3,0,0.4,0.1c0.1,0,0.1,0.1,0.1,0.2
							c0,0.1-0.1,0.2-0.2,0.3v0c0.1,0,0.2,0.1,0.2,0.3c0,0.2,0.1,0.2,0.1,0.3h-0.3c0,0-0.1-0.1-0.1-0.3c0-0.1-0.1-0.2-0.2-0.2h-0.1
							V18.9z M229.7,18.3h0.1c0.1,0,0.2,0,0.2-0.2c0-0.1-0.1-0.2-0.2-0.2c-0.1,0-0.1,0-0.1,0V18.3z"/>
					</g>
				</g>
			</g>
		</g>
	</g>
	<g>
		<g>
			<path class="st4" d="M57.2,51c0,4.8-2.3,6.8-7.6,6.8H46v7.4h-4.7V44.1h8.3C55,44.1,57.2,46.2,57.2,51z M52.6,51
				c0-2-1-2.9-3.3-2.9H46v5.8h3.3C51.6,53.9,52.6,53,52.6,51z"/>
		</g>
		<g>
			<path class="st4" d="M75.4,54.8v10.4h-3.9l-0.2-2c-1.1,1.6-2.7,2.4-4.9,2.4c-3.2,0-5.1-1.8-5.1-5c0-3.4,2.1-5.3,6.4-5.3h3v-0.5
				c0-1.7-0.7-2.5-2.3-2.5c-1.6,0-2.2,0.7-2.3,1.8h-4.4c0.2-3.6,2.4-5.4,6.9-5.4C73.3,48.7,75.4,50.6,75.4,54.8z M70.8,60.2v-1.9
				h-2.1c-2.1,0-2.8,0.7-2.8,1.9c0,1.2,0.7,1.8,2,1.8C69.2,62,70.2,61.4,70.8,60.2z"/>
		</g>
		<g>
			<path class="st4" d="M90.8,48.7V53h-0.9c-2.4,0-3.5,0.9-4,3.2v9.1h-4.6V49h3.9l0.2,3c0.6-2.3,1.9-3.3,4.1-3.3H90.8z"/>
		</g>
		<g>
			<path class="st4" d="M104.2,61.6v3.6h-3.4c-3.3,0-4.7-1.6-4.7-5.3v-7.4h-2.4V49h2.4l0.2-4h4.2v4h3.3v3.5h-3.3v7.2
				c0,1.5,0.4,2,1.7,2H104.2z"/>
		</g>
		<g>
			<path class="st4" d="M122.7,54.5v10.7h-4.6V54.9c0-1.5-0.6-2.3-1.8-2.3c-1.2,0-2.2,0.7-2.9,2.1v10.4h-4.6V49h3.9l0.1,2
				c1.2-1.6,2.7-2.3,4.7-2.3C121,48.7,122.7,50.7,122.7,54.5z"/>
		</g>
		<g>
			<path class="st4" d="M132.7,58.9c0,2.1,0.8,3.1,2.8,3.1c1.6,0,2.4-0.6,2.5-1.7h4.4c-0.2,3.5-2.6,5.3-6.9,5.3
				c-4.9,0-7.4-2.3-7.4-6.9v-3.2c0-4.5,2.5-6.9,7.2-6.9c4.7,0,7.2,2.4,7.2,6.9v2.9h-9.8V58.9z M132.7,55.3h5.5
				c0-2.2-0.8-3.1-2.7-3.1C133.5,52.3,132.7,53.2,132.7,55.3z"/>
		</g>
		<g>
			<path class="st4" d="M157.5,48.7V53h-0.9c-2.4,0-3.5,0.9-4,3.2v9.1H148V49h3.9l0.2,3c0.6-2.3,1.9-3.3,4.1-3.3H157.5z"/>
		</g>
		<g>
			<path class="st5" d="M181.8,50.6c0,4.5-2.1,6.4-7,6.4h-5.1v8.2h-2.8V44.1h7.9C179.7,44.1,181.8,46.1,181.8,50.6z M179,50.6
				c0-2.8-1.2-3.9-4.4-3.9h-5v7.8h5C177.8,54.5,179,53.5,179,50.6z"/>
		</g>
		<g>
			<path class="st5" d="M187.1,58.5v-2.6c0-4.7,2.4-7.1,6.9-7.1s6.9,2.4,6.9,7.1v2.6c0,4.7-2.4,7.1-6.9,7.1S187.1,63.2,187.1,58.5z
				 M198.2,58.4V56c0-3.2-1.4-4.7-4.2-4.7s-4.2,1.5-4.2,4.7v2.4c0,3.2,1.4,4.8,4.2,4.8S198.2,61.7,198.2,58.4z"/>
		</g>
		<g>
			<path class="st5" d="M215.5,48.9v2.7h-0.8c-2.6,0-4.1,1.3-4.6,4.4v9.2h-2.7v-16h2.3l0.1,3c0.8-2.3,2.3-3.3,4.6-3.3H215.5z"/>
		</g>
		<g>
			<path class="st5" d="M228.4,62.9v2.4h-2.5c-3.1,0-4.4-1.5-4.4-5v-8.8h-2.8v-2.2h2.8l0.2-4.2h2.4v4.2h3.9v2.2h-3.9v8.8
				c0,2.1,0.5,2.6,2.3,2.6H228.4z"/>
		</g>
		<g>
			<path class="st5" d="M246,54.8v10.4h-2.3l-0.1-2.2c-1.3,1.6-3.1,2.5-5.4,2.5c-3.3,0-5.3-1.8-5.3-4.9c0-3.2,2.1-5,6.6-5h3.8v-0.9
				c0-2.5-1.1-3.6-3.6-3.6c-2.3,0-3.6,0.9-3.7,2.9h-2.7c0.3-3.5,2.4-5.2,6.4-5.2C243.9,48.9,246,50.8,246,54.8z M243.3,60.2V58h-3.8
				c-2.8,0-4,0.9-4,2.7c0,1.7,1,2.6,3,2.6C240.7,63.2,242.3,62.2,243.3,60.2z"/>
		</g>
		<g>
			<path class="st5" d="M253,42.6h2.7v22.6H253V42.6z"/>
		</g>
	</g>
</g>
</svg>
